<svg width="296" height="72" viewBox="0 0 296 72" fill="none" xmlns="http://www.w3.org/2000/svg">
<path d="M59.8125 1.875L37.2188 33.0938L56.25 66.2812L34.5 70.125L20.25 49.875L19.5 71.0625L0 71.8125L1.5 0L23.3438 1.21875L21.6562 22.4062L36.1875 0L59.8125 1.875ZM112.312 35.9062C112.312 38.75 111.984 41.5 111.328 44.1562C110.672 46.7812 109.719 49.25 108.469 51.5625C107.25 53.875 105.75 56 103.969 57.9375C102.219 59.8438 100.234 61.4844 98.0156 62.8594C95.8281 64.2344 93.4375 65.3125 90.8438 66.0938C88.25 66.8438 85.5 67.2188 82.5938 67.2188C79.7812 67.2188 77.0938 66.8594 74.5312 66.1406C72 65.4219 69.625 64.4219 67.4062 63.1406C65.1875 61.8281 63.1719 60.2656 61.3594 58.4531C59.5781 56.6094 58.0469 54.5781 56.7656 52.3594C55.5156 50.1094 54.5312 47.7031 53.8125 45.1406C53.125 42.5781 52.7812 39.9062 52.7812 37.125C52.7812 34.4062 53.1094 31.75 53.7656 29.1562C54.4219 26.5312 55.3594 24.0625 56.5781 21.75C57.8281 19.4375 59.3281 17.3125 61.0781 15.375C62.8281 13.4375 64.7812 11.7656 66.9375 10.3594C69.125 8.95312 71.4844 7.85938 74.0156 7.07812C76.5469 6.29687 79.2188 5.90625 82.0312 5.90625C86.5625 5.90625 90.6875 6.60938 94.4062 8.01562C98.1562 9.42188 101.344 11.4375 103.969 14.0625C106.625 16.6562 108.672 19.8125 110.109 23.5312C111.578 27.2188 112.312 31.3438 112.312 35.9062ZM91.5 37.125C91.5 35.7812 91.2969 34.4844 90.8906 33.2344C90.5156 31.9531 89.9531 30.8281 89.2031 29.8594C88.4531 28.8594 87.5156 28.0625 86.3906 27.4688C85.2969 26.8438 84.0312 26.5312 82.5938 26.5312C81.125 26.5312 79.8125 26.7969 78.6562 27.3281C77.5 27.8594 76.5 28.5938 75.6562 29.5312C74.8438 30.4375 74.2188 31.5156 73.7812 32.7656C73.3438 33.9844 73.125 35.2812 73.125 36.6562C73.125 37.9688 73.3125 39.2812 73.6875 40.5938C74.0625 41.9062 74.625 43.0938 75.375 44.1562C76.125 45.2188 77.0469 46.0781 78.1406 46.7344C79.2656 47.3906 80.5625 47.7188 82.0312 47.7188C83.5 47.7188 84.8125 47.4375 85.9688 46.875C87.1562 46.2812 88.1562 45.5 88.9688 44.5312C89.7812 43.5312 90.4062 42.3906 90.8438 41.1094C91.2812 39.8281 91.5 38.5 91.5 37.125ZM156.797 42.2812L154.828 63.0938L115.359 66.1875C115.547 55.2812 115.75 44.4375 115.969 33.6562C116.219 22.875 116.516 12.0313 116.859 1.125H141.234C140.516 7.96875 139.828 14.8125 139.172 21.6562C138.516 28.4688 138.047 35.3438 137.766 42.2812C139.234 42.3438 140.688 42.375 142.125 42.375C143.562 42.375 145.016 42.375 146.484 42.375C148.234 42.375 149.953 42.3594 151.641 42.3281C153.328 42.2969 155.047 42.2812 156.797 42.2812ZM222.75 1.78125L219.375 65.3438L194.812 67.5938L181.688 33.5625L179.625 68.25H158.531L160.219 1.78125L183.656 0.65625L199.875 34.4062L200.625 2.53125L222.75 1.78125ZM286.828 5.53125L261.047 41.5312L259.828 70.875H237.609L238.172 41.7188L224.766 6.9375L248.672 3.9375L252.422 24.1875L264.328 3.9375L286.828 5.53125ZM295.828 59.3438C295.828 60.7188 295.562 62 295.031 63.1875C294.5 64.375 293.781 65.4219 292.875 66.3281C292 67.2031 290.969 67.9062 289.781 68.4375C288.594 68.9375 287.328 69.1875 285.984 69.1875C284.609 69.1875 283.328 68.9375 282.141 68.4375C280.953 67.9062 279.906 67.2031 279 66.3281C278.125 65.4219 277.422 64.375 276.891 63.1875C276.391 62 276.141 60.7188 276.141 59.3438C276.141 58 276.391 56.7188 276.891 55.5C277.422 54.2812 278.125 53.2344 279 52.3594C279.906 51.4531 280.953 50.7344 282.141 50.2031C283.328 49.6719 284.609 49.4062 285.984 49.4062C287.328 49.4062 288.594 49.6719 289.781 50.2031C290.969 50.7344 292 51.4531 292.875 52.3594C293.781 53.2344 294.5 54.2812 295.031 55.5C295.562 56.7188 295.828 58 295.828 59.3438Z" fill="white"/>
</svg>
